<svg width="99" height="102" viewBox="0 0 99 102" xmlns="http://www.w3.org/2000/svg"><title>645E38E1-4147-4A0B-BBEB-690131EDA3FC</title><g stroke="#FDAA39" stroke-width="3" fill="none" fill-rule="evenodd" stroke-linecap="round" stroke-linejoin="round"><path d="M63.373 31.684L8.353 86.612c-1.167 1.164-1.31 2.912-.319 3.901M70.18 60.77L55.235 75.69l21.322 21.288c4.128 4.12 10.818 4.12 14.946 0a10.538 10.538 0 0 0 0-14.92L70.18 60.77zM61.625 52.23L46.68 67.15l5.5 5.49 14.943-14.92zM43.52 45.324L16.933 18.78l-3.615 3.611 26.587 26.541M49.572 58.585l2.843 2.839 3.616-3.61-2.844-2.838"/><path d="M7.95 9.323l-4.108 4.1 8.644 9.8 5.279-5.272zM63.016 25.86L3.917 84.858c-2.67 2.665-2.339 6.655.331 9.32s6.667 2.995 9.337.331l59.119-59.02.22.219c6.228 2.362 13.538 1.044 18.554-3.964 4.871-4.864 6.26-11.886 4.17-17.982L85.407 23.988a4.733 4.733 0 0 1-6.686-.001l-4.162-4.155a4.714 4.714 0 0 1 0-6.674L84.8 2.933C78.693.846 71.66 2.232 66.788 7.096c-5.017 5.008-6.337 12.306-3.97 18.524l.198.24z"/></g></svg>