<?xml version="1.0" encoding="UTF-8"?>
<svg width="40px" height="41px" viewBox="0 0 40 41" version="1.1" xmlns="http://www.w3.org/2000/svg" xmlns:xlink="http://www.w3.org/1999/xlink">
    <!-- Generator: Sketch 42 (36781) - http://www.bohemiancoding.com/sketch -->
    <title>Group 23</title>
    <desc>Created with Sketch.</desc>
    <defs/>
    <g id="Page-1" stroke="none" stroke-width="1" fill="none" fill-rule="evenodd" stroke-linecap="round" stroke-linejoin="round">
        <g id="categories-copy-2" transform="translate(-1247.000000, -776.000000)" stroke-width="1.5" stroke="#FDAA39">
            <g id="Group-23" transform="translate(1248.000000, 777.000000)">
                <g id="Group">
                    <g id="Group-2">
                        <g id="Group-3">
                            <path d="M27.0304057,23 L21,28.9679394 L29.6034145,37.4827636 C31.2690569,39.1306235 33.9687121,39.1306235 35.6343545,37.4827636 C37.2994626,35.8349037 37.2994626,33.1626842 35.6343545,31.5148243 L27.0304057,23 Z" id="Stroke-16"/>
                            <polygon id="Stroke-18" points="24.0304057 20 18 25.9679394 20.2192534 28.1636757 26.2491248 22.1957363"/>
                            <polyline id="Stroke-20" points="16.1869236 16.6169562 5.45883984 6 4 7.44425719 14.7280838 18.0606846"/>
                            <polyline id="Stroke-22" points="19 22.4437284 20.1473001 23.579144 21.6061399 22.1354157 20.4588398 21"/>
                            <polygon id="Stroke-24" points="1.65709244 3 -4.4408921e-16 4.63992733 3.48785628 8.55967626 5.61786932 6.45119825"/>
                            <path d="M24.5912293,9.546612 L0.744274469,33.1465466 C-0.333022645,34.2126845 -0.199429253,35.8087182 0.877867861,36.8748561 C1.95516497,37.9404651 3.5679044,38.0726747 4.64520152,37.0070657 L28.500172,13.3986696 L28.588878,13.4864568 C31.1020369,14.4314907 34.051779,13.904239 36.0759861,11.9009998 C38.041412,9.95540395 38.6019699,7.14674414 37.7587284,4.70827109 L33.6258832,8.79830591 C32.8809665,9.5355064 31.6727479,9.5355064 30.9278311,8.79777708 L29.248295,7.13563854 C28.5033782,6.39843805 28.5033782,5.20326366 29.248295,4.46606318 L33.3811402,0.376028349 C30.9171436,-0.458478369 28.0790856,0.0957440904 26.1131253,2.04133992 C24.0889182,4.04457911 23.5561477,6.96376611 24.5110733,9.45089228 L24.5912293,9.546612 Z" id="Stroke-26"/>
                        </g>
                    </g>
                </g>
            </g>
        </g>
    </g>
</svg>