<?xml version="1.0" encoding="UTF-8"?>
<svg width="1440px" height="420px" viewBox="0 0 1440 420" version="1.1" xmlns="http://www.w3.org/2000/svg" xmlns:xlink="http://www.w3.org/1999/xlink">
    <!-- Generator: Sketch 45.2 (43514) - http://www.bohemiancoding.com/sketch -->
    <title>Pattern</title>
    <desc>Created with Sketch.</desc>
    <defs>
        <rect id="path-1" x="0" y="0" width="1440" height="420"></rect>
        <linearGradient x1="80.1537639%" y1="20.1609892%" x2="-111.058627%" y2="214.586925%" id="linearGradient-3">
            <stop stop-color="#FFAB00" offset="0%"></stop>
            <stop stop-color="#FF9E00" offset="21.7511732%"></stop>
            <stop stop-color="#FF6D00" offset="100%"></stop>
        </linearGradient>
        <rect id="path-4" x="-54" y="-5.68434189e-14" width="1547" height="420"></rect>
        <filter x="-0.5%" y="-1.9%" width="101.0%" height="103.8%" filterUnits="objectBoundingBox" id="filter-5">
            <feMorphology radius="8" operator="erode" in="SourceAlpha" result="shadowSpreadInner1"></feMorphology>
            <feGaussianBlur stdDeviation="4" in="shadowSpreadInner1" result="shadowBlurInner1"></feGaussianBlur>
            <feOffset dx="0" dy="0" in="shadowBlurInner1" result="shadowOffsetInner1"></feOffset>
            <feComposite in="shadowOffsetInner1" in2="SourceAlpha" operator="arithmetic" k2="-1" k3="1" result="shadowInnerInner1"></feComposite>
            <feColorMatrix values="0 0 0 0 1   0 0 0 0 0.42745098   0 0 0 0 0  0 0 0 0.4 0" type="matrix" in="shadowInnerInner1"></feColorMatrix>
        </filter>
    </defs>
    <g id="Page-1" stroke="none" stroke-width="1" fill="none" fill-rule="evenodd">
        <g id="MainPage-1" transform="translate(0.000000, -178.000000)">
            <g id="MainBanner" transform="translate(0.000000, 178.000000)">
                <g id="Pattern">
                    <mask id="mask-2" fill="white">
                        <use xlink:href="#path-1"></use>
                    </mask>
                    <g id="Mask"></g>
                    <g id="BG" mask="url(#mask-2)" transform="translate(719.500000, 210.000000) scale(1, -1) translate(-719.500000, -210.000000) ">
                        <use fill="url(#linearGradient-3)" fill-rule="evenodd" xlink:href="#path-4"></use>
                        <use fill="black" fill-opacity="1" filter="url(#filter-5)" xlink:href="#path-4"></use>
                    </g>
                    <g id="Group-3" mask="url(#mask-2)" fill="#FB8C00">
                        <g transform="translate(-6.000000, -26.000000)">
                            <path d="M78.3456672,404.145677 L56.9666011,440.662266 C54.1690431,445.44077 48.0122959,447.047324 43.2477048,444.241829 C40.9389246,442.884887 39.2964189,440.706081 38.6208722,438.109039 C37.9466501,435.510669 38.3215123,432.806081 39.6765795,430.491845 L61.0556456,393.975257 C62.9193597,390.79003 66.2758995,389.014854 69.7172139,389.014854 C71.4405203,389.014854 73.1850203,389.459644 74.7732173,390.395694 C77.0819975,391.752635 78.7258278,393.931442 79.4000499,396.528484 C80.0755966,399.126854 79.6994098,401.831442 78.3456672,404.145677 M76.7852868,386.959526 C70.1278403,383.044047 61.5351513,385.286585 57.6289018,391.959761 L36.2498358,428.475022 C34.3569804,431.708047 33.8337629,435.485442 34.7755544,439.112803 C35.717346,442.738837 38.0128802,445.780669 41.2369599,447.677997 C43.4569918,448.984484 45.8929337,449.604534 48.2970852,449.604534 C53.1040636,449.604534 57.7891786,447.124333 60.3933449,442.677761 L81.7724109,406.161173 C83.6652663,402.929476 84.1884838,399.152081 83.2466923,395.524719 C82.3035761,391.897358 80.0093665,388.855526 76.7852868,386.959526" id="Fill-1"></path>
                            <path d="M161.821383,337.677467 L146.524886,363.805887 L63.0617543,314.709047 L78.3582509,288.581955 L161.821383,337.677467 Z M57.6229411,316.128392 L147.940885,369.256224 L167.258872,336.25945 L76.9422521,283.131618 L57.6229411,316.128392 Z" id="Fill-3"></path>
                            <path d="M166.932887,355.93762 L159.935018,351.821654 L157.924273,355.256494 L163.208108,358.364713 L150.340931,380.342645 L94.0480216,356.934746 C93.1313975,356.555015 92.0743656,356.908192 91.5723417,357.767234 L76.4202267,383.64604 L79.848295,385.662864 L94.1235239,361.279082 L150.416433,384.686982 C151.331732,385.064057 152.388764,384.712208 152.890788,383.854494 L167.640224,358.663452 C167.907794,358.20804 167.981972,357.664998 167.849511,357.153822 C167.717051,356.642645 167.387226,356.204494 166.932887,355.93762" id="Fill-5"></path>
                            <path d="M191.509144,83.1174269 C192.000571,81.3064017 193.164895,79.7967714 194.788857,78.8633765 C195.863108,78.2473092 197.053925,77.932637 198.259312,77.932637 C198.876576,77.932637 199.49649,78.0149563 200.107131,78.1809227 C203.835884,79.196637 206.045319,83.0629899 205.031999,86.7992252 C204.020004,90.5367882 200.162764,92.7527714 196.434012,91.7370571 C194.627255,91.2444689 193.119859,90.0773933 192.189989,88.449595 C191.261443,86.8217966 191.019041,84.9271244 191.509144,83.1174269 M195.39155,95.5808387 C196.351886,95.8410739 197.316196,95.9658807 198.26726,95.9658807 C203.099406,95.9658807 207.540794,92.7381664 208.86672,87.8454773 L208.86672,87.8441496 C210.453592,81.9875277 206.992409,75.9290908 201.149592,74.3384689 C198.318919,73.5657294 195.358435,73.9467882 192.813876,75.4072924 C190.269317,76.8677966 188.444016,79.2351412 187.674423,82.0725025 C186.08755,87.9291244 189.548734,93.9888891 195.39155,95.5808387" id="Fill-7"></path>
                            <path d="M184.3861,74.2013143 L196.041267,67.5108773 L209.002492,71.0413143 L215.678482,82.7240202 L212.155043,95.7171966 L200.499875,102.407634 L187.538651,98.8758689 L180.863985,87.193163 L184.3861,74.2013143 Z M184.498691,101.572491 C184.760962,102.030558 185.192782,102.365146 185.701429,102.504558 L200.252175,106.466508 C200.423049,106.512978 200.597896,106.536877 200.772743,106.536877 C201.115815,106.536877 201.457562,106.447919 201.760896,106.273987 L214.845308,98.7630118 C215.302296,98.500121 215.636095,98.0672807 215.775178,97.5574319 L219.727789,82.9723059 C219.866872,82.4624571 219.796668,81.9180874 219.535722,81.4600202 L212.042452,68.3460202 C211.780181,67.8879529 211.347036,67.552037 210.839714,67.4139529 L196.288968,63.4506756 C195.780321,63.3112639 195.237234,63.3816336 194.780247,63.6445244 L181.697159,71.1541714 C181.240172,71.4170622 180.905047,71.8499025 180.767289,72.3597513 L176.813354,86.9448773 C176.675595,87.4547261 176.744474,87.9990958 177.006746,88.457163 L184.498691,101.572491 Z" id="Fill-9"></path>
                            <path d="M872.125223,298.06076 C871.044348,300.112104 869.204477,301.660239 866.944707,302.419701 C862.393376,303.951903 857.521492,301.766457 855.974358,297.536306 C855.696192,294.534306 853.229784,268.589113 850.377917,259.989398 C846.977666,249.74197 833.946237,229.466188 832.331548,226.972709 L823.481887,199.596222 L840.279156,193.941415 L872.685529,291.681012 C873.387568,293.777499 873.188877,296.042608 872.125223,298.06076 L872.125223,298.06076 Z M813.870579,198.629634 C813.671889,198.697348 813.483795,198.794272 813.316896,198.920407 L791.544423,215.155903 L779.452137,179.066844 L835.254944,160.280776 L844.634446,188.273331 L842.79325,188.893382 L842.79325,188.893382 L831.255972,192.778323 L813.870579,198.629634 Z M844.046323,192.673432 L847.783023,191.416071 C848.282398,191.247449 848.694349,190.887634 848.928803,190.414961 C849.163258,189.940961 849.201671,189.393936 849.033447,188.893382 L838.38895,157.126087 C838.04058,156.083818 836.914669,155.523516 835.873532,155.871382 L776.30356,175.925432 C775.804185,176.092726 775.390909,176.453869 775.156455,176.926541 C774.922,177.399213 774.883587,177.946239 775.051811,178.446793 L788.648844,219.026239 C788.851508,219.631684 789.331014,220.101701 789.939006,220.292894 C790.133723,220.35397 790.332413,220.384508 790.532428,220.384508 C790.953651,220.384508 791.3709,220.249079 791.717946,219.990171 L815.434933,202.304793 L819.71472,200.864205 L828.714062,228.704071 L828.858444,228.925802 C829.0015,229.146205 843.219772,251.036508 846.606777,261.24676 C849.428178,269.750877 852.0138,297.862928 852.038967,298.145734 L852.134339,298.598491 C853.843074,303.69565 858.708335,306.891499 863.984223,306.891499 C865.380352,306.891499 866.806948,306.667113 868.209701,306.195768 C871.440404,305.109684 874.07901,302.880424 875.638065,299.920911 C877.215666,296.929533 877.504429,293.553113 876.45402,290.419667 L844.046323,192.673432 Z" id="Fill-11"></path>
                            <path d="M393.322626,312.883682 L387.420203,334.03975 L381.957546,341.170993 L362.272646,391.092355 L361.977259,390.975514 C361.975935,390.974187 361.975935,390.974187 361.97461,390.974187 L354.40054,387.972187 C354.391267,387.968203 354.38332,387.966876 354.374048,387.962892 L354.102504,387.855346 L373.786081,337.933985 L374.665616,328.986405 L384.786895,309.500624 L393.322626,312.883682 Z M367.053132,409.122943 L346.799977,466.08659 C346.292655,467.512573 345.255492,468.6438 343.879231,469.269161 C342.504295,469.894523 340.973056,469.931699 339.567654,469.376708 L317.275937,460.545968 C315.87186,459.988321 314.780388,458.910203 314.202862,457.512103 C313.625336,456.112674 313.639906,454.577817 314.2426,453.18901 L338.314581,397.737649 C340.182269,393.437128 344.326946,390.865313 348.724623,390.865313 C350.11413,390.865313 351.531453,391.125548 352.907714,391.665934 L360.534769,394.686523 C366.259696,396.967565 369.122159,403.303497 367.053132,409.122943 L367.053132,409.122943 Z M370.785859,327.829951 L369.886454,336.987313 L350.183009,386.959128 C343.722928,386.333766 337.396632,389.866859 334.670602,396.148355 L310.598622,451.599716 C309.562783,453.986976 309.537616,456.627834 310.531067,459.033682 C311.523193,461.440859 313.400154,463.291716 315.816226,464.24901 L338.106618,473.07975 C339.240477,473.52985 340.422021,473.754237 341.602241,473.754237 C342.93479,473.754237 344.266015,473.467447 345.521737,472.896523 C347.887475,471.819733 349.670388,469.875934 350.5433,467.424943 L370.79778,410.461296 C373.090665,404.00985 370.886528,397.095027 365.744426,393.125111 L385.449196,343.154624 L391.039013,335.854758 L398.113709,310.49775 L382.916558,304.477817 L370.785859,327.829951 Z" id="Fill-13"></path>
                            <path d="M345.94998,403.110976 C344.928713,402.700708 343.774985,403.207901 343.372306,404.230254 L324.311292,452.571615 C323.907289,453.593968 324.407988,454.753077 325.427931,455.15538 C325.667684,455.252304 325.915385,455.296119 326.157787,455.296119 C326.949898,455.296119 327.698298,454.818136 328.00693,454.036103 L347.067944,405.694741 C347.470623,404.672388 346.971248,403.514607 345.94998,403.110976" id="Fill-15"></path>
                            <path d="M357.816422,407.812605 C356.795154,407.404992 355.641426,407.909529 355.238747,408.931882 L336.177734,457.273244 C335.77373,458.295597 336.27443,459.454706 337.294373,459.857008 C337.534126,459.953933 337.781826,459.997748 338.024228,459.997748 C338.81634,459.997748 339.564739,459.519765 339.873372,458.737731 L358.934385,410.39637 C359.337064,409.374017 358.837689,408.216235 357.816422,407.812605" id="Fill-17"></path>
                            <path d="M34.3323428,168.102573 L33.9111196,169.155464 C33.3309442,170.610657 31.6738679,171.319666 30.2274032,170.736792 L10.8021241,162.937699 C9.35168565,162.354825 8.64302392,160.697817 9.22452392,159.245279 L9.64574715,158.189733 C9.92788724,157.484708 10.4656754,156.932371 11.1610911,156.63496 C11.5200581,156.480943 11.8975695,156.403934 12.2764055,156.403934 C12.6327232,156.403934 12.9903656,156.471649 13.3307882,156.609733 L23.0427654,160.509279 L32.7560672,164.408825 C33.4581059,164.690304 34.0091401,165.229363 34.3071754,165.92775 C34.6052107,166.624808 34.6144829,167.397548 34.3323428,168.102573 M7.33431777,146.850909 L7.7568656,145.796691 C8.19928246,144.686708 9.26558656,144.010892 10.3914977,144.010892 C10.7411925,144.010892 11.0961856,144.077279 11.440582,144.215363 L24.2057654,149.340405 C24.20709,149.340405 24.20709,149.341733 24.2084146,149.341733 C24.2097392,149.343061 24.2097392,149.343061 24.2110638,149.343061 L29.6286834,151.517884 L29.630008,151.519212 L29.6326572,151.519212 L42.658787,156.750472 C44.1092255,157.332018 44.8178872,158.989027 44.2363872,160.442892 L43.8138394,161.497111 C43.5330239,162.202136 42.9952358,162.754472 42.2984954,163.053212 C41.6030797,163.351951 40.8334863,163.361245 40.130123,163.078439 L8.911918,150.543329 C7.4614795,149.961783 6.75414237,148.304775 7.33431777,146.850909 M32.7163292,106.991094 C31.2725137,106.410876 30.1386549,105.30222 29.5266891,103.868271 C28.9147232,102.434321 28.8961788,100.846355 29.4750296,99.3978 C30.3863554,97.1194134 32.5785706,95.7306067 34.89,95.7306067 C35.6092585,95.7306067 36.3417631,95.8647076 37.0491002,96.148842 C40.0307779,97.3464555 41.4851902,100.752086 40.2917244,103.740808 C39.0969339,106.729531 35.6953576,108.18738 32.7163292,106.991094 M49.401008,107.398708 C50.3123337,105.118993 52.504549,103.731514 54.817303,103.731514 C55.5365615,103.731514 56.2690661,103.865615 56.9764032,104.14975 C59.9580809,105.347363 61.4124932,108.752993 60.2177027,111.741716 C59.0242369,114.731766 55.627959,116.192271 52.6436321,114.992002 C49.6619544,113.794388 48.2075421,110.388758 49.401008,107.398708 M7.18066401,79.5734471 C11.6260262,68.4510437 20.1259932,59.7291782 31.1148861,55.014405 C42.1064282,50.2996319 54.268918,50.1575647 65.3651036,54.6134303 C76.4612893,59.0679681 85.1625957,67.5880185 89.8662551,78.6042034 C94.5699146,89.6190605 94.7116469,101.811615 90.2676093,112.934018 C83.1783428,130.671178 65.6260501,141.978136 46.5849055,141.060674 L45.1728804,140.99296 L40.8758736,151.743598 L39.6386959,151.247027 L32.9521082,148.561027 L46.4776128,114.714506 C47.5412677,116.44985 49.1387369,117.875834 51.165377,118.689733 C52.3561936,119.167716 53.5867483,119.39343 54.7974339,119.39343 C58.6864636,119.39343 62.3741538,117.057951 63.9067175,113.223464 C65.9148132,108.195346 63.4695991,102.466187 58.4533337,100.452018 C53.4383929,98.4378504 47.722738,100.89017 45.7119932,105.918287 L29.2630934,147.080607 L27.5305148,146.384876 L43.9807392,105.222556 C45.9888349,100.194439 43.5422961,94.465279 38.5273554,92.4511109 C33.51109,90.4369429 27.7954351,92.8892622 25.7860148,97.9173798 C23.7765945,102.945497 26.2231333,108.674657 31.2393986,110.688825 C32.4302153,111.166808 33.6607699,111.392523 34.870131,111.392523 C35.7218497,111.392523 36.5603223,111.261077 37.3709784,111.045985 L23.8415,144.903128 L16.1839795,141.828103 L20.4796617,131.078792 L19.4107084,130.14938 C5.00831777,117.634187 0.0927220957,97.3106067 7.18066401,79.5734471 M37.6001344,170.637212 L38.0213576,169.582993 C38.392246,168.654909 38.5326538,167.679027 38.4849681,166.708455 L38.6518679,166.77617 C39.4717961,167.105447 40.3288132,167.268758 41.1845057,167.268758 C42.0931822,167.268758 43.0018588,167.084203 43.8628497,166.715094 C45.5344966,165.998119 46.8273075,164.670388 47.5028542,162.978859 L47.9254021,161.92464 C49.2619248,158.578758 47.7399579,154.811985 44.5476686,153.267834 L47.8167847,145.086355 C67.9825159,145.458119 86.4156686,133.282825 93.9566241,114.414439 C98.7953929,102.304203 98.6404146,89.0308756 93.5195057,77.0374807 C88.3985968,65.042758 78.9237232,55.7672286 66.8420342,50.9156992 C54.7603451,46.0641697 41.5169806,46.2195143 29.5518565,51.3525227 C17.5867323,56.4855311 8.3317426,65.9814639 3.4916492,78.0930269 C-4.04930638,96.9614134 0.887482916,118.521111 15.746861,132.210018 L12.4777449,140.39017 C9.10398519,139.294792 5.40569818,140.967733 4.0665262,144.313615 L3.64530296,145.369161 C2.25049772,148.862422 3.94996128,152.841632 7.43366287,154.242388 L7.60188724,154.308775 C6.89852392,154.976624 6.32762073,155.779901 5.95673235,156.707985 L5.53550911,157.763531 C4.14070387,161.255464 5.84016743,165.236002 9.32386902,166.63543 L28.7491481,174.434523 C29.5677517,174.7638 30.4247688,174.927111 31.2817859,174.927111 C32.1904624,174.927111 33.0978144,174.742556 33.9588052,174.373447 C35.6304522,173.656472 36.9245877,172.330069 37.6001344,170.637212" id="Fill-19"></path>
                            <path d="M23.0370696,73.5653311 C23.5589625,73.5653311 24.0808555,73.3595328 24.4716129,72.9532471 C30.9436151,66.1871294 39.9999147,62.4163731 49.366171,62.584995 C50.4655901,62.6620034 51.3702928,61.7325916 51.3901618,60.6319025 C51.4113555,59.5325412 50.5384432,58.6243731 49.4416732,58.6031294 C38.9706994,58.3800706 28.8414728,62.6301378 21.6025263,70.1955496 C20.8435297,70.9895328 20.8700218,72.2495496 21.6608088,73.0116672 C22.0462678,73.3807765 22.5416687,73.5653311 23.0370696,73.5653311" id="Fill-22"></path>
                            <path d="M93.544938,63.0867445 C93.9727843,63.0867445 94.4046043,62.9486605 94.7675451,62.6631983 L102.040931,56.9579378 C102.904571,56.2794672 103.058225,55.0287445 102.381354,54.1617361 C101.704482,53.2947277 100.455383,53.1433664 99.5917433,53.8205092 L92.3196818,59.5270975 C91.4547171,60.2055681 91.3023879,61.4562908 91.9792592,62.3219714 C92.3713412,62.8251815 92.9554904,63.0867445 93.544938,63.0867445" id="Fill-26"></path>
                            <path d="M950.377638,93.4605849 L937.967448,96.8184168 L931.970977,74.5576773 L951.522093,69.2666689 L954.823,81.5256101 L950.377638,93.4605849 Z M954.322301,64.3819462 L927.099093,71.7495261 L935.16724,101.701812 L953.385808,96.7719462 L958.992845,81.7221143 L954.322301,64.3819462 Z" id="Fill-30"></path>
                            <path d="M924.254247,112.833908 L922.941567,107.961134 L927.291558,106.783437 L916.429827,66.458916 L960.884773,54.4283445 L967.97404,80.747958 L957.407695,103.862429 L924.254247,112.833908 Z M1085.55625,46.7487479 L1083.02891,52.0702941 L1076.86025,49.6684286 C1075.89196,49.2926807 1074.79387,49.7281765 1074.34748,50.6695378 L1071.50223,56.6562773 L1065.33356,54.2544118 C1064.36396,53.8760084 1063.26719,54.3141597 1062.8208,55.2541933 L1059.97423,61.2422605 L1053.80423,58.840395 C1052.8333,58.4633193 1051.73786,58.8988151 1051.29147,59.8401765 L1048.4449,65.8282437 L1042.27623,63.4277059 C1041.30265,63.0506303 1040.21118,63.4861261 1039.76346,64.4274874 L1036.91424,70.4155546 L1030.74425,68.0150168 C1029.77067,67.6379412 1028.67655,68.073437 1028.23148,69.0147983 L1025.38359,75.0028655 L1019.21227,72.6023277 C1018.24001,72.2252521 1017.14589,72.6607479 1016.6995,73.6021092 L1013.85558,79.5888487 L1007.68691,77.1869832 C1006.71731,76.8099076 1005.62186,77.2454034 1005.17414,78.1867647 L1002.32493,84.1761597 L996.154934,81.7742941 C995.181352,81.3972185 994.088556,81.8327143 993.642165,82.7740756 L990.792947,88.7647983 L984.618981,86.3629328 C983.649372,85.9871849 982.553927,86.4226807 982.107536,87.3627143 L979.259643,93.3521092 L973.084352,90.9515714 C972.116068,90.5744958 971.021947,91.0099916 970.572908,91.9500252 L967.717067,97.9460588 L965.538098,97.0989664 L971.904132,81.7145462 L972.184947,81.0998067 L971.998179,80.4067311 L971.998179,80.4040756 L966.743485,60.8957227 L964.710222,53.344916 L1078.28154,19.7373866 L1085.55625,46.7487479 Z M963.312768,100.507252 L967.997883,102.326244 C968.233662,102.417857 968.476064,102.461672 968.715817,102.461672 C969.460242,102.461672 970.170229,102.039454 970.509327,101.32779 L973.365167,95.333084 L979.541783,97.7336218 C980.510067,98.1106975 981.606837,97.6752017 982.053228,96.7351681 L984.901121,90.7444454 L991.073763,93.1463109 C992.043371,93.5207311 993.137492,93.086563 993.586532,92.1465294 L996.435749,86.1571345 L1002.60574,88.5576723 C1003.57932,88.9334202 1004.6708,88.4979244 1005.11851,87.5578908 L1007.96773,81.5698235 L1014.1364,83.9716891 C1015.10336,84.3461092 1016.20145,83.9119412 1016.64917,82.9705798 L1019.49309,76.9851681 L1025.6644,79.3857059 C1026.63534,79.7614538 1027.72946,79.325958 1028.17717,78.3859244 L1031.02374,72.3965294 L1037.19506,74.798395 C1038.16732,75.1741429 1039.25879,74.7399748 1039.70783,73.7986134 L1042.55704,67.8092185 L1048.72704,70.211084 C1049.69797,70.5868319 1050.79209,70.1526639 1051.23981,69.2113025 L1054.08637,63.2232353 L1060.25504,65.6251008 C1061.2273,65.999521 1062.3201,65.5653529 1062.76781,64.6239916 L1065.61438,58.6372521 L1071.78305,61.0391176 C1072.75266,61.4148655 1073.84943,60.9793697 1074.29582,60.0380084 L1077.14106,54.0512689 L1083.30973,56.4531345 C1084.27801,56.8275546 1085.37611,56.3933866 1085.82382,55.4533529 L1089.46118,47.7963277 C1089.66384,47.3674706 1089.70888,46.8801933 1089.58437,46.4207983 L1081.58775,16.7300756 C1081.44867,16.2135882 1081.10692,15.7727815 1080.64066,15.5112185 C1080.17175,15.2483277 1079.61939,15.1885798 1079.10677,15.3399412 L961.762984,50.0640924 L911.557943,63.6520924 L922.41835,103.976613 L918.069683,105.152983 L921.45404,117.71863 L960.243666,107.220261 L963.312768,100.507252 Z" id="Fill-32"></path>
                            <path d="M509.524076,321.198864 C508.190202,323.590108 506.003285,325.305536 503.367329,326.031805 C498.070248,327.486998 492.506922,324.370813 490.970385,319.078477 C487.590002,307.428965 483.267828,292.064461 481.873022,285.026158 C479.133747,271.199166 474.846012,228.661318 474.803625,228.232461 C474.791703,228.122259 474.771834,228.012057 474.742693,227.905839 L470.816575,213.568998 L473.651222,212.78962 C478.884722,218.283771 486.192547,221.066696 493.685817,220.43204 L494.216982,222.373183 C494.554756,225.723049 498.609361,265.663855 501.327443,279.376662 C502.739468,286.509234 507.045747,301.83125 510.407585,313.427654 C511.169231,316.053906 510.8553,318.812931 509.524076,321.198864 M514.223762,312.316343 C510.883117,300.79562 506.609953,285.594427 505.22442,278.601267 C502.485144,264.774276 498.19741,222.236427 498.155022,221.80757 C498.143101,221.697368 498.123232,221.587166 498.094091,221.480948 L497.064875,217.724797 C496.798631,216.748914 495.847567,216.13683 494.843519,216.282881 C487.690672,217.40083 480.56829,214.767939 475.803699,209.24325 C475.303,208.661704 474.512213,208.421385 473.775734,208.625855 L467.849468,210.256309 C467.340821,210.395721 466.909001,210.731637 466.648054,211.191032 C466.387108,211.650427 466.319553,212.193469 466.458636,212.703318 L470.865585,228.799402 C471.203358,232.149267 475.257963,272.088746 477.976045,285.801553 C479.397342,292.980595 483.751307,308.464595 487.154208,320.191116 C488.937121,326.331872 494.613038,330.372158 500.727398,330.372158 C501.950005,330.372158 503.189832,330.210175 504.419062,329.871603 C508.089533,328.8612 511.134791,326.472612 512.991882,323.14399 C514.847649,319.819351 515.284767,315.972914 514.223762,312.316343" id="Fill-34"></path>
                            <path d="M515.914218,201.161086 L519.51316,200.170598 L523.439278,214.506111 C523.468419,214.613657 523.506833,214.71722 523.554518,214.819455 C523.734664,215.209808 541.716128,253.978229 546.402567,267.270145 C548.78685,274.033607 552.897088,289.457859 555.925127,301.205624 C557.300063,306.541775 554.106449,312.069119 548.806719,313.528296 C546.169438,314.250582 543.414267,313.896077 541.051178,312.524531 C538.690738,311.154313 537.016442,308.942313 536.332948,306.296145 C533.318155,294.601489 529.215865,279.223708 526.797143,272.367304 C522.150441,259.18559 505.292239,222.768582 503.876241,219.716128 L503.29739,217.601052 C509.677995,214.22596 514.280984,208.237892 515.914218,201.161086 M500.13954,214.710582 C499.240136,215.108901 498.767253,216.108682 499.0282,217.059338 L500.089205,220.931002 C500.118346,221.038548 500.15676,221.143439 500.203121,221.244346 C500.384591,221.634699 518.36473,260.403119 523.05117,273.695035 C525.420882,280.414682 529.490057,295.675624 532.486305,307.291943 C533.437369,310.979052 535.771317,314.062044 539.060302,315.971321 C541.236622,317.235321 543.65137,317.880598 546.099234,317.880598 C547.352307,317.879271 548.614652,317.710649 549.858452,317.368094 C557.239131,315.337993 561.687143,307.639808 559.771769,300.209825 C556.725186,288.383724 552.581833,272.839976 550.14854,265.942413 C545.500514,252.760699 528.643637,216.343691 527.227638,213.289909 L522.819365,197.195153 C522.680282,196.685304 522.343833,196.252464 521.886845,195.990901 C521.427209,195.729338 520.882797,195.658968 520.378124,195.802363 L513.687563,197.643926 C512.948435,197.845741 512.392103,198.457825 512.256993,199.213304 C511.029088,206.096262 506.500276,211.889153 500.13954,214.710582" id="Fill-36"></path>
                            <path d="M467.677534,144.287061 L471.726841,143.173094 L475.487384,156.907145 C474.414457,158.71817 474.101851,160.906271 474.659508,162.944338 C475.21849,164.982405 476.601374,166.704472 478.446544,167.71222 L481.530215,178.970052 C481.687843,179.54496 482.093171,180.01896 482.636258,180.261934 C483.179344,180.503582 483.803231,180.491632 484.335721,180.22343 C485.245722,179.768018 486.195462,179.401565 487.159771,179.136018 C488.121432,178.870472 489.124155,178.699195 490.141449,178.62617 C490.73487,178.583682 491.277957,178.276976 491.621029,177.789699 C491.9641,177.30375 492.072718,176.687682 491.91509,176.112775 L488.831418,164.854943 C489.90567,163.04259 490.218276,160.855817 489.659294,158.81775 C489.101637,156.779682 487.718753,155.057615 485.872259,154.049867 L482.111715,140.314489 L486.161022,139.200523 L502.235059,166.67659 L507.657977,186.479699 L507.136085,186.624422 C506.611542,186.767817 506.169126,187.120993 505.912153,187.601632 C505.653856,188.082271 505.604845,188.646556 505.774394,189.164371 L505.881687,189.483027 C505.929373,189.618455 505.978383,189.753884 506.016796,189.895951 C508.256697,198.073447 503.441771,206.552338 495.282227,208.798859 C487.122682,211.040069 478.663778,206.216422 476.425202,198.041582 C476.386788,197.898187 476.358972,197.754792 476.329831,197.610069 L476.260951,197.286103 C476.143062,196.753682 475.813236,196.29296 475.346976,196.012808 C475.03437,195.824271 474.679377,195.727346 474.321735,195.727346 C474.145563,195.727346 473.969391,195.749918 473.795868,195.797716 L473.273975,195.941111 L467.851057,176.138002 L467.677534,144.287061 Z M472.410335,200.309346 L472.920307,200.168607 C474.434326,204.677582 477.506077,208.423111 481.665325,210.794439 C484.617861,212.479329 487.883004,213.338371 491.190533,213.338371 C492.907217,213.338371 494.634497,213.107346 496.33396,212.638657 C506.243303,209.912825 512.2358,199.880489 510.115113,189.934455 L510.626409,189.793716 C511.684766,189.502943 512.307328,188.406237 512.015916,187.346708 L505.996927,165.368775 C505.951891,165.200153 505.883012,165.03817 505.795588,164.888136 L488.816848,135.869245 C488.363834,135.091195 487.445885,134.715447 486.578271,134.955766 L479.143284,137.0018 C478.084927,137.292573 477.462365,138.387951 477.753777,139.448808 L482.283914,155.993666 C482.452138,156.607077 482.902503,157.103649 483.495924,157.329363 C484.656275,157.768842 485.505344,158.696926 485.827222,159.871968 C486.1491,161.048338 485.890803,162.279145 485.118561,163.251044 C484.722505,163.748943 484.58872,164.40617 484.756944,165.019582 L487.481649,174.970926 C487.018039,175.062539 486.558402,175.170086 486.106713,175.294892 C485.655024,175.419699 485.205984,175.561766 484.760918,175.719766 L482.034889,165.768422 C481.866664,165.153682 481.4163,164.658439 480.822878,164.432724 C479.663852,163.991918 478.814783,163.065161 478.49158,161.890119 C478.169702,160.715077 478.429324,159.482943 479.201566,158.509716 C479.596297,158.011817 479.731407,157.355918 479.563182,156.742506 L475.031721,140.197649 C474.741633,139.138119 473.650162,138.514086 472.590481,138.804859 L465.156818,140.850892 C464.289204,141.088556 463.690484,141.881212 463.695783,142.781413 L463.878578,176.422136 C463.879902,176.596069 463.902421,176.770002 463.950106,176.938624 L469.96777,198.916556 C470.257858,199.976086 471.350654,200.597464 472.410335,200.309346 L472.410335,200.309346 Z" id="Fill-38"></path>
                            <path d="M322.95702,18.6097445 L349.721915,11.013795 L371.201651,4.91818151 L380.163904,36.6469714 L310.438212,56.4341479 L301.47596,24.705358 L322.95702,18.6097445 Z M325.69762,13.6918286 L325.037969,11.3576773 L344.15594,5.93124034 L344.815592,8.26671933 L330.880785,12.2207025 L325.69762,13.6918286 Z M380.300338,133.426618 C380.720236,134.852602 380.555986,136.356921 379.839376,137.659425 C379.122767,138.963257 377.941223,139.903291 376.513302,140.309576 L367.762986,142.792434 C366.335065,143.196064 364.836941,143.01682 363.54413,142.283913 C362.252644,141.552333 361.326748,140.357375 360.946587,138.953963 L339.118481,52.4350218 L353.648034,48.3124168 L380.300338,133.426618 Z M307.697612,61.3520639 L335.294357,53.5211059 L357.102594,139.964366 C357.771518,142.435274 359.363688,144.490602 361.587694,145.750618 C363.032834,146.571156 364.628979,146.989392 366.244993,146.989392 C367.112606,146.989392 367.986843,146.868568 368.84651,146.625593 L377.595502,144.141408 C380.052637,143.44435 382.0859,141.824518 383.319104,139.583308 C384.552308,137.34077 384.834448,134.75435 384.101944,132.266182 L357.473482,47.2263328 L385.070227,39.3940471 L373.943576,0.000265546218 L348.639716,7.18196303 L346.89654,1.01332437 L320.131645,8.60927395 L321.874821,14.7765849 L296.569636,21.9582824 L307.697612,61.3520639 Z" id="Fill-40"></path>
                            <path d="M805.61712,422.118111 L685.838717,454.513422 L692.482918,438.019018 C692.644519,437.616716 692.671011,437.173254 692.55842,436.753691 L682.996123,401.228918 C681.887431,397.111624 682.445088,392.809775 684.565775,389.114699 C686.685137,385.416968 690.11453,382.7708 694.220795,381.659489 L787.904551,356.319741 C796.382,354.025422 805.138939,359.076111 807.42785,367.572262 L816.843117,402.548682 C819.130704,411.044834 814.094569,419.823792 805.61712,422.118111 L805.61712,422.118111 Z M811.263896,366.535304 C808.405406,355.918766 797.464199,349.605405 786.870037,352.474632 L693.186281,377.81438 C688.054775,379.201859 683.76969,382.509237 681.120487,387.127086 C678.471284,391.746262 677.774544,397.122245 679.158753,402.265876 L688.548852,437.146699 L680.658201,456.733388 C680.376061,457.43443 680.51382,458.235052 681.014519,458.800666 C681.397329,459.232178 681.940415,459.47117 682.500722,459.47117 C682.674245,459.47117 682.847767,459.448598 683.018641,459.402128 L806.652959,425.96322 C817.245796,423.096649 823.537652,412.128262 820.679163,401.510397 L811.263896,366.535304 Z" id="Fill-42"></path>
                            <path d="M710.401595,416.883664 L707.502043,417.668353 L708.465028,421.241277 C709.131302,423.716168 708.552452,425.474084 706.319174,426.078202 C704.124309,426.671697 702.704337,425.454168 702.038062,422.980605 L698.12519,408.447261 C697.46024,405.973697 698.077504,404.20516 700.271044,403.611664 C702.504322,403.007546 703.885881,404.235697 704.552155,406.709261 L705.260817,409.340824 L708.16037,408.557462 L707.494095,406.082571 C706.373482,401.918807 703.673945,399.700168 699.441843,400.844672 C695.24948,401.978555 694.030847,405.256723 695.15146,409.420487 L698.978233,423.640487 C700.10017,427.802924 702.798383,430.022891 706.992071,428.887681 C711.222848,427.744504 712.442806,424.463681 711.322193,420.301244 L710.401595,416.883664 Z" id="Fill-44"></path>
                            <polygon id="Fill-46" points="708.487149 398.693482 715.889021 426.18681 718.944877 425.359634 712.295378 400.655869 719.033625 398.831566 725.684448 423.537987 728.741628 422.71081 721.339756 395.217482"></polygon>
                            <path d="M733.163015,412.750039 L731.908618,396.06577 L739.27605,411.097013 L733.163015,412.750039 Z M728.940186,393.160694 L731.091339,422.074694 L733.91274,421.311249 L733.479595,415.48782 L740.415208,413.611736 L742.963741,418.862913 L746.020921,418.035736 L733.368328,391.963081 L728.940186,393.160694 Z" id="Fill-48"></path>
                            <path d="M757.811065,404.061499 L754.911513,404.844861 L755.873173,408.419113 C756.539448,410.894003 755.961921,412.651919 753.727319,413.256037 C751.533779,413.849533 750.112482,412.632003 749.447532,410.15844 L745.534659,395.625096 C744.868385,393.150205 745.485649,391.382995 747.680514,390.789499 C749.913792,390.185382 751.295351,391.413533 751.960301,393.887096 L752.670287,396.518659 L755.569839,395.735297 L754.903565,393.259079 C753.782952,389.096642 751.083415,386.878003 746.851313,388.022508 C742.65895,389.155062 741.438992,392.434558 742.559605,396.598323 L746.386378,410.816995 C747.508315,414.98076 750.207853,417.200726 754.400216,416.065516 C758.632318,414.921012 759.852276,411.641516 758.731663,407.477751 L757.811065,404.061499 Z" id="Fill-50"></path>
                            <polygon id="Fill-52" points="765.418515 383.294855 764.603886 396.199074 764.120406 405.64057 758.600792 385.139074 755.897281 385.869326 763.297829 413.363982 766.471574 412.504939 767.110031 398.638116 767.597485 388.730587 773.486662 410.607612 776.228587 409.866738 768.828039 382.37341"></polygon>
                            <path d="M784.999038,404.502306 L781.627927,405.414457 L778.773411,394.809869 L781.986894,393.940205 C784.220172,393.336087 785.618951,393.843281 786.336885,396.513348 L787.257483,399.930928 C787.944951,402.482827 787.232316,403.898188 784.999038,404.502306 L784.999038,404.502306 Z M789.445725,395.884003 C788.261531,391.483903 785.518282,390.035348 781.246442,391.191802 L778.032959,392.060138 L775.728153,383.4976 L784.271832,381.18602 L783.520783,378.399113 L771.960987,381.524592 L779.361534,409.019247 L785.748762,407.291869 C790.059015,406.126121 791.412758,403.18918 790.260354,398.907247 L789.445725,395.884003 Z" id="Fill-54"></path>
                            <path d="M800.3917,400.634492 C798.198161,401.227988 796.747722,400.059585 796.070851,397.547518 L792.159303,383.014173 C791.493028,380.54061 792.150031,378.76145 794.343571,378.167955 C796.576849,377.563837 797.998146,378.781366 798.663096,381.253602 L802.575968,395.788274 C803.252839,398.301669 802.624978,400.030375 800.3917,400.634492 L800.3917,400.634492 Z M801.762663,380.584425 C800.631453,376.382156 797.825948,374.233887 793.592522,375.379719 C789.401483,376.513602 788.053039,379.785131 789.184248,383.9874 L793.012346,398.206072 C794.132959,402.369837 796.950386,404.55661 801.142749,403.424055 C805.374851,402.278224 806.711374,398.966862 805.589436,394.803097 L801.762663,380.584425 Z" id="Fill-56"></path>
                            <path d="M285.819701,277.374709 L158.54273,233.266155 L174.779693,222.354861 C175.13866,222.111886 175.410204,221.760037 175.550611,221.351096 L188.540977,183.693987 C190.060295,179.288575 193.1996,175.740877 197.381366,173.70281 C201.563133,171.664743 206.287986,171.381936 210.680364,172.903516 L309.984404,207.318306 C319.055274,210.462373 323.883446,220.419029 320.748115,229.511331 L307.960413,266.585566 C304.823757,275.680524 294.891896,280.524087 285.819701,277.374709 L285.819701,277.374709 Z M324.50336,230.813835 C328.3553,219.644961 322.42506,207.416558 311.282513,203.554188 L211.979798,169.139398 C200.835927,165.277029 188.637673,171.222608 184.785732,182.391482 L172.013926,219.417919 L153.013844,232.185382 C152.387307,232.6076 152.053508,233.347146 152.148879,234.095987 C152.246899,234.846155 152.758196,235.475499 153.470831,235.722457 L284.521592,281.140155 C286.826398,281.939449 289.176241,282.317852 291.488995,282.317852 C300.354552,282.317852 308.659803,276.745365 311.715658,267.886743 L324.50336,230.813835 Z" id="Fill-58"></path>
                            <polygon id="Fill-60" points="201.11449 191.970664 190.505758 222.727555 193.924554 223.911891 203.45771 196.275168 210.996017 198.888143 201.464185 226.524866 204.882981 227.709202 215.491714 196.953639"></polygon>
                            <path d="M226.885272,209.017271 L221.278235,225.275338 C220.307302,228.086145 218.606514,229.318279 216.108316,228.451271 C213.653829,227.601523 213.031267,225.564783 214.000875,222.752649 L219.609237,206.495909 C220.564275,203.728918 222.323345,202.468901 224.777832,203.319976 C227.27603,204.185657 227.84031,206.250279 226.885272,209.017271 M225.853408,200.199808 C221.162994,198.574666 217.794533,200.801271 216.173221,205.502766 L210.686722,221.407657 C209.079981,226.065338 210.342326,229.946296 215.032739,231.571439 C219.766865,233.212514 223.151221,230.942094 224.757963,226.284413 L230.243137,210.378195 C231.865773,205.676699 230.587533,201.840884 225.853408,200.199808" id="Fill-62"></path>
                            <path d="M246.697467,207.768539 L242.271974,220.597077 C241.118246,222.805094 239.408186,223.638909 237.347106,222.92459 C234.937656,222.089447 234.214424,219.773884 235.10853,217.180825 L239.246585,205.186103 L235.826464,204.000439 L231.598336,216.25938 C230.173065,220.388624 231.05525,224.236388 235.176085,225.665027 C237.017281,226.302338 239.145915,226.105834 240.787096,224.904237 L236.088735,238.524103 L239.463819,239.693834 L250.072552,208.938271 L246.697467,207.768539 Z" id="Fill-64"></path>
                            <polygon id="Fill-66" points="264.272941 213.859373 255.240484 225.534113 248.735367 234.151087 256.645886 211.215861 253.620496 210.168281 243.011764 240.923844 246.56302 242.15465 256.047166 229.454903 262.851643 220.399776 254.409959 244.873844 257.477736 245.937356 268.086468 215.181793"></polygon>
                            <polygon id="Fill-68" points="282.506873 220.178444 277.73301 234.018713 270.193379 231.405738 274.967242 217.565469 271.548446 216.381133 260.939714 247.136696 264.35851 248.321032 269.132373 234.480763 276.672004 237.095066 271.898141 250.934007 275.318262 252.119671 285.926994 221.364108"></polygon>
                            <polygon id="Fill-70" points="291.049625 237.945345 284.544508 246.562319 292.456351 223.625765 289.430962 222.578185 278.82223 253.333748 282.372161 254.564555 291.856307 241.864807 298.660784 232.811008 290.2191 257.283748 293.286877 258.347261 303.895609 227.591697 300.082082 226.269277"></polygon>
                            <path d="M1047.14017,370.597232 L1043.83926,369.458039 C1043.83793,369.458039 972.942619,344.983971 972.942619,344.983971 C972.93997,344.982644 969.639064,343.844778 969.639064,343.844778 L973.640684,332.191282 L1051.14179,358.946392 L1047.14017,370.597232 Z M1014.62385,448.365097 C1014.21985,449.538812 1013.38535,450.485484 1012.27136,451.029854 C1011.16002,451.574224 1009.90165,451.649904 1008.72937,451.246274 L950.360815,431.096627 C949.191192,430.692997 948.246752,429.856526 947.70499,428.739904 C947.160578,427.62461 947.083752,426.363266 947.487755,425.189551 L973.526769,349.398677 L1040.66286,372.572896 L1014.62385,448.365097 Z M1020.34785,343.530106 L1007.18529,338.985282 C1009.33379,337.329602 1012.24262,336.7454 1014.98984,337.6934 C1017.73839,338.642728 1019.6723,340.898543 1020.34785,343.530106 Z M1024.56406,344.983971 C1024.31503,340.101904 1021.17308,335.615501 1016.28397,333.927955 C1011.39752,332.243064 1006.16534,333.836341 1002.96908,337.530089 L973.056535,327.777904 C972.55716,327.605299 972.012749,327.63982 971.538542,327.869518 C971.064335,328.101871 970.702719,328.513467 970.53052,329.012694 L965.234764,344.430308 C964.877122,345.469921 965.428156,346.603803 966.466643,346.960963 L969.770199,348.101484 L943.729861,423.893686 C942.981461,426.072492 943.124518,428.41461 944.13254,430.485871 C945.140561,432.558459 946.893009,434.113232 949.068004,434.862072 L1007.43524,455.011719 C1008.35451,455.329047 1009.30293,455.488375 1010.24737,455.488375 C1011.53753,455.488375 1012.81974,455.193618 1014.01321,454.609417 C1016.08091,453.599013 1017.63202,451.841097 1018.38174,449.662291 L1044.42076,373.870089 L1047.72431,375.01061 C1047.93493,375.083635 1048.15349,375.119484 1048.37204,375.119484 C1048.67008,375.119484 1048.96811,375.05177 1049.24231,374.918997 C1049.71651,374.686644 1050.07813,374.276375 1050.25033,373.777148 L1055.54741,358.359534 C1055.90373,357.319921 1055.35269,356.186039 1054.31553,355.828879 L1024.56406,344.983971 Z" id="Fill-72"></path>
                            <path d="M983.120724,430.76642 C983.335309,430.840773 983.552544,430.875294 983.767129,430.875294 C984.592356,430.875294 985.361949,430.357479 985.646739,429.53163 L1005.30117,372.325008 C1005.65749,371.285395 1005.10646,370.15284 1004.06797,369.794353 C1003.03081,369.435866 1001.90092,369.988202 1001.54328,371.029143 L981.888845,428.235765 C981.531202,429.275378 982.083561,430.407933 983.120724,430.76642" id="Fill-74"></path>
                            <path d="M960.982264,421.018484 C960.624622,422.058097 961.17698,423.19198 962.214143,423.549139 C962.428729,423.623492 962.645963,423.658013 962.860549,423.658013 C963.685775,423.658013 964.456693,423.141526 964.740158,422.315677 L984.394593,365.109055 C984.750911,364.068114 984.199877,362.93556 983.162714,362.577072 C982.124226,362.22124 980.994341,362.770921 980.636699,363.811862 L960.982264,421.018484 Z" id="Fill-76"></path>
                            <path d="M1004.02717,437.983435 C1004.24176,438.057788 1004.45899,438.092309 1004.67358,438.092309 C1005.4988,438.092309 1006.2684,437.574494 1006.55319,436.748645 L1026.20762,379.542024 C1026.56526,378.50241 1026.01291,377.369855 1024.97574,377.011368 C1023.9399,376.652881 1022.80737,377.205217 1022.44973,378.246158 L1002.79529,435.45278 C1002.43765,436.492393 1002.99001,437.624948 1004.02717,437.983435" id="Fill-78"></path>
                            <path d="M678.643615,273.917829 C673.894919,262.379845 685.244104,255.657543 680.215917,243.441089 C678.781374,239.951812 676.586509,237.869929 673.444555,237.869929 C672.306722,237.869929 671.047026,238.142114 669.652221,238.71835 C664.40415,240.887862 663.559055,244.85645 665.4837,249.534047 L667.407022,254.207661 L660.68467,256.987929 L658.915002,252.688736 C655.626017,244.695795 657.811609,237.438417 667.665319,233.364938 C670.530432,232.179274 673.116054,231.622955 675.426158,231.622955 C681.136515,231.622955 685.159329,235.025929 687.523743,240.771022 C692.769164,253.518568 680.993458,261.299072 685.152706,271.404434 C685.555385,272.385627 686.143508,273.288484 686.792563,274.079812 L680.347052,276.745896 C679.696673,275.954568 679.140341,275.124736 678.643615,273.917829 M681.861072,280.427694 L688.307907,277.762938 C689.472231,277.280971 690.34117,276.273224 690.647153,275.049055 C690.953136,273.82356 690.661723,272.525039 689.861664,271.550484 C689.400703,270.988854 689.04306,270.412618 688.825826,269.885509 C687.527716,266.73082 688.486728,263.807156 690.161024,259.299509 C692.124083,254.016467 694.566648,247.440215 691.196862,239.253425 C688.114515,231.763694 682.5141,227.639761 675.426158,227.639761 C672.549124,227.639761 669.427039,228.326198 666.149975,229.681812 C660.391933,232.062434 656.536018,235.547728 654.688199,240.038114 C652.962244,244.233745 653.154311,249.133072 655.241883,254.207661 L657.01155,258.506854 C657.412904,259.482736 658.185147,260.259459 659.158729,260.665745 C659.647507,260.868887 660.165426,260.971123 660.68467,260.971123 C661.19994,260.971123 661.71521,260.870215 662.200014,260.669728 L668.922366,257.890787 C669.895948,257.487156 670.670839,256.713089 671.076167,255.738534 C671.481495,254.761324 671.48282,253.665946 671.081466,252.688736 L669.15682,248.013795 C667.735523,244.560366 668.718377,243.413207 671.167565,242.400148 C672.0471,242.03635 672.81272,241.853123 673.44323,241.853123 C673.988966,241.853123 675.264557,241.853123 676.544122,244.960013 C678.516453,249.755778 677.279276,253.315425 675.713597,257.823072 C673.998238,262.756921 672.053723,268.350652 674.970495,275.438081 C675.555969,276.861408 676.26728,278.044417 677.276626,279.275224 C678.048869,280.216585 679.184052,280.729089 680.347052,280.729089 C680.855699,280.729089 681.370969,280.630837 681.861072,280.427694" id="Fill-80"></path>
                            <path d="M687.881517,295.841059 L684.872023,288.526588 L691.685773,285.709143 L694.696591,293.023613 L687.881517,295.841059 Z M691.684448,281.724622 C691.17845,281.724622 690.665829,281.821546 690.170429,282.027345 L683.355355,284.84479 C682.381773,285.247092 681.606881,286.02116 681.202877,286.997042 C680.797549,287.971597 680.796225,289.068303 681.197579,290.045513 L684.208398,297.361311 C684.609752,298.337193 685.381995,299.113916 686.355577,299.520202 C686.844355,299.723345 687.362274,299.824252 687.881517,299.824252 C688.396787,299.824252 688.912057,299.724672 689.398186,299.522857 L696.211935,296.705412 C698.2399,295.867613 699.206859,293.538773 698.369711,291.504689 L695.358892,284.190218 C694.725733,282.652706 693.244828,281.724622 691.684448,281.724622 L691.684448,281.724622 Z" id="Fill-82"></path>
                            <path d="M1140.31633,295.088899 L1122.44614,280.855622 L1123.82107,271.245504 L1130.33944,263.022866 L1139.78914,259.038345 L1157.6302,273.247723 L1140.31633,295.088899 Z M1052.82641,208.014966 L1055.17493,205.051471 L1126.30735,261.704429 L1121.61031,267.630092 L1050.4779,210.977134 L1052.82641,208.014966 Z M1020.43064,189.805134 C1019.19081,188.815975 1018.40797,187.404597 1018.22915,185.827252 C1018.04768,184.249908 1018.49142,182.696462 1019.47693,181.453706 C1020.46243,180.21095 1021.8718,179.426261 1023.44543,179.245689 C1023.67459,179.219134 1023.90374,179.207185 1024.13157,179.207185 C1025.46412,179.207185 1026.74899,179.65463 1027.80734,180.497739 L1046.29216,195.218294 C1046.29216,195.219622 1046.29216,195.219622 1046.29348,195.219622 C1046.29348,195.219622 1046.29348,195.22095 1046.2948,195.22095 L1053.40394,200.883723 L1049.71625,205.53742 L1046.13188,210.058345 L1046.13055,210.059672 L1046.02723,210.191118 L1020.43064,189.805134 Z M1022.67319,221.816731 L998.658165,202.690765 C986.395006,192.923975 984.344523,174.977034 994.088291,162.683571 L995.498991,160.905739 C1005.24408,148.613605 1023.1474,146.560933 1035.41056,156.326395 L1059.42558,175.452361 L1047.20878,190.862008 L1030.28037,177.378899 C1028.2087,175.729857 1025.62175,174.988983 1022.99374,175.28905 C1020.36441,175.590445 1018.01192,176.899588 1016.36544,178.97616 C1014.72028,181.051403 1013.97983,183.64579 1014.28051,186.280008 C1014.5812,188.914227 1015.88726,191.273605 1017.95893,192.922647 L1034.88866,206.407084 L1022.67319,221.816731 Z M1161.65699,271.367655 L1141.33893,255.183941 C1140.77067,254.731185 1139.99975,254.626294 1139.33216,254.907773 L1129.41354,259.091454 L1057.64664,201.933958 L1057.75128,201.802513 C1058.43478,200.940815 1058.29039,199.687437 1057.43205,199.003655 L1050.32027,193.340882 L1063.77292,176.371151 C1064.1001,175.956899 1064.2511,175.42979 1064.19149,174.905336 C1064.13056,174.380882 1063.86564,173.901571 1063.45369,173.573622 L1037.88226,153.207555 C1023.90374,142.073202 1003.49429,144.416647 992.387503,158.428193 L990.978127,160.206025 C979.871344,174.218899 982.207941,194.67658 996.186459,205.808277 L1021.75656,226.174345 C1022.10891,226.455824 1022.5447,226.605857 1022.99242,226.605857 C1023.06659,226.605857 1023.14342,226.601874 1023.2176,226.593908 C1023.74214,226.532832 1024.22032,226.267286 1024.5475,225.853034 L1037.99883,208.88463 L1045.11061,214.547403 C1045.46428,214.828882 1045.90007,214.980244 1046.34646,214.980244 C1046.42197,214.980244 1046.49747,214.976261 1046.57297,214.966966 C1047.09619,214.907218 1047.57437,214.641672 1047.90155,214.22742 L1048.00619,214.095975 L1119.80223,271.27737 L1118.35047,281.421235 C1118.2498,282.12095 1118.52797,282.823319 1119.08165,283.264126 L1139.39971,299.446513 C1139.75338,299.727992 1140.18917,299.878025 1140.63556,299.878025 C1140.71107,299.878025 1140.78657,299.874042 1140.86207,299.866076 C1141.38529,299.806328 1141.86347,299.539454 1142.19197,299.126529 L1161.97754,274.166513 C1162.65971,273.304815 1162.51665,272.051437 1161.65699,271.367655 L1161.65699,271.367655 Z" id="Fill-84"></path>
                            <path d="M1146.41546,274.554476 L1139.05333,283.843282 L1131.40243,277.748997 L1131.96538,273.809618 L1134.87818,270.135787 L1138.7937,268.485417 L1146.41546,274.554476 Z M1138.33804,264.354845 L1132.86876,266.662442 C1132.56146,266.791232 1132.29124,266.99703 1132.08327,267.258593 L1128.5201,271.754291 C1128.30021,272.031787 1128.15848,272.361064 1128.10815,272.710257 L1127.30676,278.31461 C1127.20742,279.014324 1127.48426,279.716694 1128.03794,280.157501 L1138.1367,288.200896 C1138.49037,288.481047 1138.92616,288.633736 1139.37256,288.633736 C1139.44806,288.633736 1139.52356,288.629753 1139.59906,288.620459 C1140.12228,288.560711 1140.60046,288.293837 1140.92764,287.879585 L1150.7628,275.471938 C1151.44497,274.611568 1151.30192,273.359518 1150.44357,272.674408 L1140.34481,264.631013 C1139.77391,264.179585 1139.00299,264.073366 1138.33804,264.354845 L1138.33804,264.354845 Z" id="Fill-87"></path>
                            <path d="M828.679225,36.1295546 L826.649936,41.3833866 L815.862382,40.5017731 L819.000363,32.3747311 L828.679225,36.1295546 Z M810.573249,24.0073697 C810.289784,23.3647479 810.272564,22.6491008 810.526888,21.9932017 L813.459555,14.3985798 L823.657661,18.3552185 L823.387442,19.0575882 C822.991387,20.0825966 823.500034,21.236395 824.522626,21.6333866 L831.810583,24.4601261 C832.300685,24.6499916 832.847745,24.6367143 833.331225,24.425605 C833.812055,24.2118403 834.190891,23.8148487 834.380309,23.3222605 L834.651853,22.6198908 L844.849958,26.5765294 L841.918616,34.172479 C841.396723,35.525437 839.872106,36.2025798 838.521013,35.6767983 L831.969535,33.135521 C831.96821,33.1341933 831.966886,33.1341933 831.966886,33.1341933 L818.581789,27.941437 C818.580464,27.9401092 818.580464,27.9401092 818.57914,27.9401092 L812.027661,25.3975042 C811.373308,25.1452353 810.856714,24.6499916 810.573249,24.0073697 L810.573249,24.0073697 Z M814.366907,44.3760924 L825.154461,45.2577059 L823.592756,49.3006471 L812.805202,48.4190336 L814.366907,44.3760924 Z M811.308403,52.2933529 L822.097281,53.1749664 L819.875924,58.9266975 L809.088371,58.045084 L811.308403,52.2933529 Z M814.203981,73.6167143 L807.685618,76.0876218 L804.525119,69.8618908 L807.592896,61.9194034 L818.380449,62.8010168 L814.203981,73.6167143 Z M804.951641,79.4852857 C805.300011,80.170395 805.994102,80.5740252 806.722633,80.5740252 C806.957087,80.5740252 807.194191,80.5315378 807.425996,80.4439076 L816.439908,77.0276555 C816.9671,76.8271681 817.385674,76.4115882 817.589662,75.8831513 L832.38546,37.5674874 L837.087794,39.3917899 C837.867985,39.6945126 838.669368,39.8379076 839.46148,39.8379076 C842.108034,39.8365798 844.612855,38.2300252 845.623526,35.6104118 L849.274127,26.1569664 C849.670183,25.131958 849.161536,23.9781597 848.137619,23.5811681 L834.233278,18.1865966 C833.741851,17.9954034 833.193466,18.0086807 832.712636,18.2224454 C832.230481,18.4348824 831.85297,18.8318739 831.662227,19.3244622 L831.392009,20.0268319 L827.810286,18.6380252 L828.08183,17.9356555 C828.477886,16.9093193 827.969239,15.755521 826.945322,15.3585294 L813.040981,9.96395798 C812.549554,9.77276471 812.001169,9.78736975 811.520339,9.99980672 C811.038184,10.2135714 810.660673,10.610563 810.46993,11.1031513 L806.820653,20.5552689 C806.184845,22.2029832 806.225907,24.0007311 806.938543,25.6179076 C807.651178,27.2337563 808.949288,28.4751849 810.593118,29.1124958 L815.295453,30.9367983 L800.499655,69.2524622 C800.295667,69.7808992 800.324808,70.3704118 800.581781,70.8749496 L804.951641,79.4852857 Z" id="Fill-89"></path>
                            <path d="M634.986741,150.785773 C634.487366,150.538815 634.45955,150.103319 634.487366,149.865655 C634.515183,149.627992 634.64102,149.211084 635.182782,149.08495 L647.096247,146.329908 L662.008609,109.193269 L631.236794,93.9934034 C627.969003,92.3788824 625.522464,89.5853361 624.350192,86.1265966 C623.176595,82.6678571 623.418997,78.9581765 625.029712,75.6826639 L626.349015,72.9993193 L612.883118,66.3487143 L620.763171,50.3163613 L624.797907,42.1109832 L713.535602,85.942042 C714.019081,86.1810336 714.013783,86.7001765 713.988616,86.9139412 C713.974045,87.0453866 713.865428,87.7119076 713.232268,87.857958 L703.019592,90.2213193 L700.812806,89.1312521 L669.53102,167.848445 L634.986741,150.785773 Z M650.096469,111.973538 L651.37206,108.37937 L656.945982,111.133084 L653.462281,119.808479 C650.901826,117.511504 649.064604,114.071353 650.096469,111.973538 L650.096469,111.973538 Z M610.99821,61.1692353 L606.805847,59.0993025 L609.240464,54.1468655 L615.33363,41.7538235 L619.524669,43.825084 L616.03302,50.9271176 L610.99821,61.1692353 Z M581.301972,41.5905126 L583.622674,36.8704286 L585.943375,32.1490168 L593.811507,28.7938403 L612.689726,38.1184958 L609.23914,45.1382101 L602.318097,59.2148151 L583.439879,49.8888319 L581.301972,41.5905126 Z M545.411898,17.9967311 L549.47445,16.8309832 L555.065593,19.5926639 L557.648565,27.2125126 L546.964331,21.9361092 L545.411898,17.9967311 Z M569.242801,32.9403445 L562.689998,29.7033361 L560.107026,22.0821597 L566.659829,25.3191681 L569.242801,32.9403445 Z M578.802449,37.6617563 L574.284234,35.4298403 L571.701261,27.8099916 L581.312569,32.557958 L578.802449,37.6617563 Z M703.035487,94.3040924 L714.126374,91.738916 C716.188778,91.2609328 717.684253,89.5468319 717.935928,87.3720084 C718.182304,85.2476387 717.143816,83.2839244 715.292023,82.3691176 L622.988502,36.7774874 L621.281091,40.2521597 L617.088727,38.1808992 L618.011974,36.3048151 L593.932046,24.4123277 L583.13787,29.0182269 L549.855936,12.5782605 L540.105545,15.3744622 L543.832973,24.8292353 L577.116232,41.2692017 L580.047575,52.6544958 L604.127503,64.5469832 L605.048101,62.6722269 L609.240464,64.7434874 L607.56087,68.1610672 L621.051935,74.8236218 C619.349822,78.8254034 619.180273,83.2573697 620.586999,87.4078571 C622.101019,91.8730168 625.260193,95.4817899 629.480373,97.5663277 L647.786364,106.609504 L646.476333,110.328479 C644.292065,114.98616 647.96651,120.666193 651.911173,123.669521 L644.183448,142.914983 L634.290001,145.203992 C632.252764,145.675336 630.781132,147.325706 630.540054,149.406261 C630.297652,151.489471 631.354684,153.433269 633.230319,154.358697 L671.631838,173.326664 L703.035487,94.3040924 Z" id="Fill-91"></path>
                            <path d="M558.501344,394.625978 C546.583905,389.895272 533.049129,395.766499 528.329574,407.712096 L512.031679,448.968684 C510.271283,453.42455 510.346786,458.299978 512.246264,462.698751 C514.145742,467.096197 517.638716,470.491205 522.084078,472.254432 C524.218011,473.100197 526.44864,473.523743 528.676619,473.523743 C531.090043,473.523743 533.499493,473.028499 535.780457,472.039339 C540.168861,470.135373 543.554542,466.634146 545.313613,462.178281 L561.894973,420.207373 C563.18381,416.94381 563.128176,413.372213 561.737345,410.14981 C560.346514,406.928734 557.787384,404.443222 554.531514,403.151339 L554.393755,403.096903 C551.137885,401.802365 547.574707,401.859457 544.361224,403.253575 C541.147741,404.647692 538.666763,407.212869 537.377926,410.476432 L526.318829,438.47297 L530.013142,439.938785 L541.072239,411.943575 C541.971643,409.669171 543.700248,407.880718 545.940149,406.910146 C548.18005,405.938247 550.663678,405.898415 552.930071,406.799945 L553.067829,406.854382 C555.336871,407.755911 557.121109,409.487272 558.089393,411.732466 C559.059001,413.977659 559.098739,416.465827 558.199335,418.741558 L541.619299,460.711138 C538.793925,467.868936 530.68604,471.384768 523.546438,468.55139 C520.087904,467.178516 517.371147,464.537659 515.892892,461.116096 C514.415961,457.694533 514.356354,453.902533 515.725992,450.434499 L532.023887,409.179239 C535.93676,399.275692 547.157458,394.40823 557.038984,398.32902 C566.386696,402.040029 570.188302,412.287457 566.076739,422.695541 L555.535561,449.378953 L559.229875,450.844768 L569.771052,424.160029 C574.73036,411.607659 569.990936,399.186734 558.501344,394.625978" id="Fill-93"></path>
                            <path d="M1250.34567,414.145677 L1228.9666,450.662266 C1226.16904,455.44077 1220.0123,457.047324 1215.2477,454.241829 C1212.93892,452.884887 1211.29642,450.706081 1210.62087,448.109039 C1209.94665,445.510669 1210.32151,442.806081 1211.67658,440.491845 L1233.05565,403.975257 C1234.91936,400.79003 1238.2759,399.014854 1241.71721,399.014854 C1243.44052,399.014854 1245.18502,399.459644 1246.77322,400.395694 C1249.082,401.752635 1250.72583,403.931442 1251.40005,406.528484 C1252.0756,409.126854 1251.69941,411.831442 1250.34567,414.145677 M1248.78529,396.959526 C1242.12784,393.044047 1233.53515,395.286585 1229.6289,401.959761 L1208.24984,438.475022 C1206.35698,441.708047 1205.83376,445.485442 1206.77555,449.112803 C1207.71735,452.738837 1210.01288,455.780669 1213.23696,457.677997 C1215.45699,458.984484 1217.89293,459.604534 1220.29709,459.604534 C1225.10406,459.604534 1229.78918,457.124333 1232.39334,452.677761 L1253.77241,416.161173 C1255.66527,412.929476 1256.18848,409.152081 1255.24669,405.524719 C1254.30358,401.897358 1252.00937,398.855526 1248.78529,396.959526" id="Fill-1"></path>
                            <path d="M1333.82138,347.677467 L1318.52489,373.805887 L1235.06175,324.709047 L1250.35825,298.581955 L1333.82138,347.677467 Z M1229.62294,326.128392 L1319.94089,379.256224 L1339.25887,346.25945 L1248.94225,293.131618 L1229.62294,326.128392 Z" id="Fill-3"></path>
                            <path d="M1338.93289,365.93762 L1331.93502,361.821654 L1329.92427,365.256494 L1335.20811,368.364713 L1322.34093,390.342645 L1266.04802,366.934746 C1265.1314,366.555015 1264.07437,366.908192 1263.57234,367.767234 L1248.42023,393.64604 L1251.84829,395.662864 L1266.12352,371.279082 L1322.41643,394.686982 C1323.33173,395.064057 1324.38876,394.712208 1324.89079,393.854494 L1339.64022,368.663452 C1339.90779,368.20804 1339.98197,367.664998 1339.84951,367.153822 C1339.71705,366.642645 1339.38723,366.204494 1338.93289,365.93762" id="Fill-5"></path>
                            <path d="M1363.50914,93.1174269 C1364.00057,91.3064017 1365.1649,89.7967714 1366.78886,88.8633765 C1367.86311,88.2473092 1369.05392,87.932637 1370.25931,87.932637 C1370.87658,87.932637 1371.49649,88.0149563 1372.10713,88.1809227 C1375.83588,89.196637 1378.04532,93.0629899 1377.032,96.7992252 C1376.02,100.536788 1372.16276,102.752771 1368.43401,101.737057 C1366.62726,101.244469 1365.11986,100.077393 1364.18999,98.449595 C1363.26144,96.8217966 1363.01904,94.9271244 1363.50914,93.1174269 M1367.39155,105.580839 C1368.35189,105.841074 1369.3162,105.965881 1370.26726,105.965881 C1375.09941,105.965881 1379.54079,102.738166 1380.86672,97.8454773 L1380.86672,97.8441496 C1382.45359,91.9875277 1378.99241,85.9290908 1373.14959,84.3384689 C1370.31892,83.5657294 1367.35844,83.9467882 1364.81388,85.4072924 C1362.26932,86.8677966 1360.44402,89.2351412 1359.67442,92.0725025 C1358.08755,97.9291244 1361.54873,103.988889 1367.39155,105.580839" id="Fill-7"></path>
                            <path d="M1356.3861,84.2013143 L1368.04127,77.5108773 L1381.00249,81.0413143 L1387.67848,92.7240202 L1384.15504,105.717197 L1372.49988,112.407634 L1359.53865,108.875869 L1352.86398,97.193163 L1356.3861,84.2013143 Z M1356.49869,111.572491 C1356.76096,112.030558 1357.19278,112.365146 1357.70143,112.504558 L1372.25217,116.466508 C1372.42305,116.512978 1372.5979,116.536877 1372.77274,116.536877 C1373.11582,116.536877 1373.45756,116.447919 1373.7609,116.273987 L1386.84531,108.763012 C1387.3023,108.500121 1387.6361,108.067281 1387.77518,107.557432 L1391.72779,92.9723059 C1391.86687,92.4624571 1391.79667,91.9180874 1391.53572,91.4600202 L1384.04245,78.3460202 C1383.78018,77.8879529 1383.34704,77.552037 1382.83971,77.4139529 L1368.28897,73.4506756 C1367.78032,73.3112639 1367.23723,73.3816336 1366.78025,73.6445244 L1353.69716,81.1541714 C1353.24017,81.4170622 1352.90505,81.8499025 1352.76729,82.3597513 L1348.81335,96.9448773 C1348.6756,97.4547261 1348.74447,97.9990958 1349.00675,98.457163 L1356.49869,111.572491 Z" id="Fill-9"></path>
                            <path d="M1206.33234,178.102573 L1205.91112,179.155464 C1205.33094,180.610657 1203.67387,181.319666 1202.2274,180.736792 L1182.80212,172.937699 C1181.35169,172.354825 1180.64302,170.697817 1181.22452,169.245279 L1181.64575,168.189733 C1181.92789,167.484708 1182.46568,166.932371 1183.16109,166.63496 C1183.52006,166.480943 1183.89757,166.403934 1184.27641,166.403934 C1184.63272,166.403934 1184.99037,166.471649 1185.33079,166.609733 L1195.04277,170.509279 L1204.75607,174.408825 C1205.45811,174.690304 1206.00914,175.229363 1206.30718,175.92775 C1206.60521,176.624808 1206.61448,177.397548 1206.33234,178.102573 M1179.33432,156.850909 L1179.75687,155.796691 C1180.19928,154.686708 1181.26559,154.010892 1182.3915,154.010892 C1182.74119,154.010892 1183.09619,154.077279 1183.44058,154.215363 L1196.20577,159.340405 C1196.20709,159.340405 1196.20709,159.341733 1196.20841,159.341733 C1196.20974,159.343061 1196.20974,159.343061 1196.21106,159.343061 L1201.62868,161.517884 L1201.63001,161.519212 L1201.63266,161.519212 L1214.65879,166.750472 C1216.10923,167.332018 1216.81789,168.989027 1216.23639,170.442892 L1215.81384,171.497111 C1215.53302,172.202136 1214.99524,172.754472 1214.2985,173.053212 C1213.60308,173.351951 1212.83349,173.361245 1212.13012,173.078439 L1180.91192,160.543329 C1179.46148,159.961783 1178.75414,158.304775 1179.33432,156.850909 M1204.71633,116.991094 C1203.27251,116.410876 1202.13865,115.30222 1201.52669,113.868271 C1200.91472,112.434321 1200.89618,110.846355 1201.47503,109.3978 C1202.38636,107.119413 1204.57857,105.730607 1206.89,105.730607 C1207.60926,105.730607 1208.34176,105.864708 1209.0491,106.148842 C1212.03078,107.346455 1213.48519,110.752086 1212.29172,113.740808 C1211.09693,116.729531 1207.69536,118.18738 1204.71633,116.991094 M1221.40101,117.398708 C1222.31233,115.118993 1224.50455,113.731514 1226.8173,113.731514 C1227.53656,113.731514 1228.26907,113.865615 1228.9764,114.14975 C1231.95808,115.347363 1233.41249,118.752993 1232.2177,121.741716 C1231.02424,124.731766 1227.62796,126.192271 1224.64363,124.992002 C1221.66195,123.794388 1220.20754,120.388758 1221.40101,117.398708 M1179.18066,89.5734471 C1183.62603,78.4510437 1192.12599,69.7291782 1203.11489,65.014405 C1214.10643,60.2996319 1226.26892,60.1575647 1237.3651,64.6134303 C1248.46129,69.0679681 1257.1626,77.5880185 1261.86626,88.6042034 C1266.56991,99.6190605 1266.71165,111.811615 1262.26761,122.934018 C1255.17834,140.671178 1237.62605,151.978136 1218.58491,151.060674 L1217.17288,150.99296 L1212.87587,161.743598 L1211.6387,161.247027 L1204.95211,158.561027 L1218.47761,124.714506 C1219.54127,126.44985 1221.13874,127.875834 1223.16538,128.689733 C1224.35619,129.167716 1225.58675,129.39343 1226.79743,129.39343 C1230.68646,129.39343 1234.37415,127.057951 1235.90672,123.223464 C1237.91481,118.195346 1235.4696,112.466187 1230.45333,110.452018 C1225.43839,108.43785 1219.72274,110.89017 1217.71199,115.918287 L1201.26309,157.080607 L1199.53051,156.384876 L1215.98074,115.222556 C1217.98883,110.194439 1215.5423,104.465279 1210.52736,102.451111 C1205.51109,100.436943 1199.79544,102.889262 1197.78601,107.91738 C1195.77659,112.945497 1198.22313,118.674657 1203.2394,120.688825 C1204.43022,121.166808 1205.66077,121.392523 1206.87013,121.392523 C1207.72185,121.392523 1208.56032,121.261077 1209.37098,121.045985 L1195.8415,154.903128 L1188.18398,151.828103 L1192.47966,141.078792 L1191.41071,140.14938 C1177.00832,127.634187 1172.09272,107.310607 1179.18066,89.5734471 M1209.60013,180.637212 L1210.02136,179.582993 C1210.39225,178.654909 1210.53265,177.679027 1210.48497,176.708455 L1210.65187,176.77617 C1211.4718,177.105447 1212.32881,177.268758 1213.18451,177.268758 C1214.09318,177.268758 1215.00186,177.084203 1215.86285,176.715094 C1217.5345,175.998119 1218.82731,174.670388 1219.50285,172.978859 L1219.9254,171.92464 C1221.26192,168.578758 1219.73996,164.811985 1216.54767,163.267834 L1219.81678,155.086355 C1239.98252,155.458119 1258.41567,143.282825 1265.95662,124.414439 C1270.79539,112.304203 1270.64041,99.0308756 1265.51951,87.0374807 C1260.3986,75.042758 1250.92372,65.7672286 1238.84203,60.9156992 C1226.76035,56.0641697 1213.51698,56.2195143 1201.55186,61.3525227 C1189.58673,66.4855311 1180.33174,75.9814639 1175.49165,88.0930269 C1167.95069,106.961413 1172.88748,128.521111 1187.74686,142.210018 L1184.47774,150.39017 C1181.10399,149.294792 1177.4057,150.967733 1176.06653,154.313615 L1175.6453,155.369161 C1174.2505,158.862422 1175.94996,162.841632 1179.43366,164.242388 L1179.60189,164.308775 C1178.89852,164.976624 1178.32762,165.779901 1177.95673,166.707985 L1177.53551,167.763531 C1176.1407,171.255464 1177.84017,175.236002 1181.32387,176.63543 L1200.74915,184.434523 C1201.56775,184.7638 1202.42477,184.927111 1203.28179,184.927111 C1204.19046,184.927111 1205.09781,184.742556 1205.95881,184.373447 C1207.63045,183.656472 1208.92459,182.330069 1209.60013,180.637212" id="Fill-19"></path>
                            <path d="M1195.03707,83.5653311 C1195.55896,83.5653311 1196.08086,83.3595328 1196.47161,82.9532471 C1202.94362,76.1871294 1211.99991,72.4163731 1221.36617,72.584995 C1222.46559,72.6620034 1223.37029,71.7325916 1223.39016,70.6319025 C1223.41136,69.5325412 1222.53844,68.6243731 1221.44167,68.6031294 C1210.9707,68.3800706 1200.84147,72.6301378 1193.60253,80.1955496 C1192.84353,80.9895328 1192.87002,82.2495496 1193.66081,83.0116672 C1194.04627,83.3807765 1194.54167,83.5653311 1195.03707,83.5653311" id="Fill-22"></path>
                            <path d="M1265.54494,73.0867445 C1265.97278,73.0867445 1266.4046,72.9486605 1266.76755,72.6631983 L1274.04093,66.9579378 C1274.90457,66.2794672 1275.05823,65.0287445 1274.38135,64.1617361 C1273.70448,63.2947277 1272.45538,63.1433664 1271.59174,63.8205092 L1264.31968,69.5270975 C1263.45472,70.2055681 1263.30239,71.4562908 1263.97926,72.3219714 C1264.37134,72.8251815 1264.95549,73.0867445 1265.54494,73.0867445" id="Fill-26"></path>
                            <path d="M1457.8197,287.374709 L1330.54273,243.266155 L1346.77969,232.354861 C1347.13866,232.111886 1347.4102,231.760037 1347.55061,231.351096 L1360.54098,193.693987 C1362.06029,189.288575 1365.1996,185.740877 1369.38137,183.70281 C1373.56313,181.664743 1378.28799,181.381936 1382.68036,182.903516 L1481.9844,217.318306 C1491.05527,220.462373 1495.88345,230.419029 1492.74811,239.511331 L1479.96041,276.585566 C1476.82376,285.680524 1466.8919,290.524087 1457.8197,287.374709 L1457.8197,287.374709 Z M1496.50336,240.813835 C1500.3553,229.644961 1494.42506,217.416558 1483.28251,213.554188 L1383.9798,179.139398 C1372.83593,175.277029 1360.63767,181.222608 1356.78573,192.391482 L1344.01393,229.417919 L1325.01384,242.185382 C1324.38731,242.6076 1324.05351,243.347146 1324.14888,244.095987 C1324.2469,244.846155 1324.7582,245.475499 1325.47083,245.722457 L1456.52159,291.140155 C1458.8264,291.939449 1461.17624,292.317852 1463.489,292.317852 C1472.35455,292.317852 1480.6598,286.745365 1483.71566,277.886743 L1496.50336,240.813835 Z" id="Fill-58"></path>
                            <polygon id="Fill-60" points="1373.11449 201.970664 1362.50576 232.727555 1365.92455 233.911891 1375.45771 206.275168 1382.99602 208.888143 1373.46419 236.524866 1376.88298 237.709202 1387.49171 206.953639"></polygon>
                            <path d="M1398.88527,219.017271 L1393.27823,235.275338 C1392.3073,238.086145 1390.60651,239.318279 1388.10832,238.451271 C1385.65383,237.601523 1385.03127,235.564783 1386.00087,232.752649 L1391.60924,216.495909 C1392.56427,213.728918 1394.32335,212.468901 1396.77783,213.319976 C1399.27603,214.185657 1399.84031,216.250279 1398.88527,219.017271 M1397.85341,210.199808 C1393.16299,208.574666 1389.79453,210.801271 1388.17322,215.502766 L1382.68672,231.407657 C1381.07998,236.065338 1382.34233,239.946296 1387.03274,241.571439 C1391.76686,243.212514 1395.15122,240.942094 1396.75796,236.284413 L1402.24314,220.378195 C1403.86577,215.676699 1402.58753,211.840884 1397.85341,210.199808" id="Fill-62"></path>
                            <path d="M1418.69747,217.768539 L1414.27197,230.597077 C1413.11825,232.805094 1411.40819,233.638909 1409.34711,232.92459 C1406.93766,232.089447 1406.21442,229.773884 1407.10853,227.180825 L1411.24658,215.186103 L1407.82646,214.000439 L1403.59834,226.25938 C1402.17307,230.388624 1403.05525,234.236388 1407.17608,235.665027 C1409.01728,236.302338 1411.14592,236.105834 1412.7871,234.904237 L1408.08874,248.524103 L1411.46382,249.693834 L1422.07255,218.938271 L1418.69747,217.768539 Z" id="Fill-64"></path>
                            <polygon id="Fill-66" points="1436.27294 223.859373 1427.24048 235.534113 1420.73537 244.151087 1428.64589 221.215861 1425.6205 220.168281 1415.01176 250.923844 1418.56302 252.15465 1428.04717 239.454903 1434.85164 230.399776 1426.40996 254.873844 1429.47774 255.937356 1440.08647 225.181793"></polygon>
                            <polygon id="Fill-68" points="1454.50687 230.178444 1449.73301 244.018713 1442.19338 241.405738 1446.96724 227.565469 1443.54845 226.381133 1432.93971 257.136696 1436.35851 258.321032 1441.13237 244.480763 1448.672 247.095066 1443.89814 260.934007 1447.31826 262.119671 1457.92699 231.364108"></polygon>
                            <path d="M69.2577097,44.8635025 C69.5001117,44.9604269 69.7504614,45.0068975 69.9955126,45.0068975 C70.7836505,45.0068975 71.529401,44.5328975 71.8406823,43.7548471 L77.4410969,29.7406454 C77.8490741,28.7196202 77.3536732,27.5605109 76.3350548,27.1515697 C75.3190855,26.7426286 74.1600593,27.2392 73.7520821,28.2602252 L68.1516675,42.2744269 C67.7436903,43.2954521 68.2390912,44.4545613 69.2577097,44.8635025" id="Fill-24"></path>
                            <path d="M38.5421909,40.0880521 C38.6865724,41.0798672 39.5356419,41.7928588 40.5052501,41.7928588 C40.601946,41.7928588 40.6973173,41.7862202 40.7953378,41.7716151 C41.8815109,41.6122874 42.6325599,40.601884 42.4749323,39.5131445 L41.1423834,30.3518 C40.9834312,29.2643882 39.9701112,28.510237 38.8892364,28.668237 C37.8030633,28.8275647 37.0520144,29.8379681 37.2096419,30.9267076 L38.5421909,40.0880521 Z" id="Fill-28"></path>
                            <path d="M1243.24895,53.8551786 C1243.49135,53.952103 1243.7417,53.9985735 1243.98675,53.9985735 C1244.77489,53.9985735 1245.52064,53.5245735 1245.83192,52.7465231 L1251.43234,38.7323214 C1251.84031,37.7112962 1251.34491,36.552187 1250.3263,36.1432458 C1249.31033,35.7343046 1248.1513,36.2308761 1247.74332,37.2519013 L1242.14291,51.266103 C1241.73493,52.2871282 1242.23033,53.4462374 1243.24895,53.8551786" id="Fill-24"></path>
                            <path d="M1212.35345,49.4407338 C1212.49783,50.4325489 1213.3469,51.1455405 1214.31651,51.1455405 C1214.4132,51.1455405 1214.50857,51.1389019 1214.60659,51.1242968 C1215.69277,50.9649691 1216.44382,49.9545658 1216.28619,48.8658263 L1214.95364,39.7044817 C1214.79469,38.61707 1213.78137,37.8629187 1212.70049,38.0209187 C1211.61432,38.1802464 1210.86327,39.1906498 1211.0209,40.2793893 L1212.35345,49.4407338 Z" id="Fill-28"></path>
                        </g>
                    </g>
                </g>
            </g>
        </g>
    </g>
</svg>