<svg width="93" height="90" viewBox="0 0 93 90" xmlns="http://www.w3.org/2000/svg"><title>4D3DDDBC-A52C-4950-9536-54D3D77C6EA3</title><g stroke="#FDAA39" stroke-width="3" fill="none" fill-rule="evenodd" stroke-linecap="round" stroke-linejoin="round"><path d="M18.294 35.969L2.4 21.977V2.035h74.101V24.07l-35.656 7.393"/><path d="M29.71 8.723c-5.458 0-9.975 4.238-10.316 9.677l-2.043 32.63h24.72L40.029 18.4c-.34-5.44-4.858-9.677-10.317-9.677zM90.517 7.6l-8.94-1.323V20.16l8.94-1.322zM48.496 29.877l21.468 21.432M49.381 87.92h-39.34l5.298-31.342h28.744zM18.107 81.493l3.124-18.488"/><path d="M29.71 14.402a4.33 4.33 0 0 0-4.323 4.054l-.856 13.675"/></g></svg>